<svg xmlns="http://www.w3.org/2000/svg" xmlns:xlink="http://www.w3.org/1999/xlink" width="294" height="64" viewBox="0 0 294 64"><defs><path id="qb9ba" d="M870.31 70.1c-.47.72-1.33.96-2.44.92l-.8-1.02c1.49.13 2.6-.17 3.03-1.32l.21 1.42zm-.47-7.15c-.06.78-.08 1.54-.06 2.26a3.11 3.11 0 0 0-3.2-.7c-1.36.47-2.08 2-1.65 3.44a18.23 18.23 0 0 0-2.7-1.87 35.06 35.06 0 0 1 7.6-3.13zm-.94 4.8c.36-.67.1-1.4-.59-1.66a1.6 1.6 0 0 0-1.89.75c-.35.66-.09 1.4.6 1.66a1.6 1.6 0 0 0 1.88-.75zm.5.73a2.06 2.06 0 0 1-2.95.55 2.3 2.3 0 0 1-.68-3.07c.63-1 1.95-1.24 2.95-.55 1 .7 1.3 2.07.68 3.07zm-2.14-.44c-.42-.15-.59-.62-.37-1.03a.99.99 0 0 1 1.18-.47c.42.16.59.62.37 1.04a.99.99 0 0 1-1.18.46zm-7.43-.48c.5-.34 1-.66 1.5-.97 3.01 1.48 6.24 4.97 7.83 6.9 2.19 2.63 2.74 5.1 3.28 5.03.5-.07-.58-2.86-1.2-6.09a39.27 39.27 0 0 1-.82-9.64c.46-.12.91-.23 1.37-.33.13 4.73.77 13.28 2.33 18.25-.72.17-1.34.42-1.81.67-2.69-7.29-7.97-11.2-12.48-13.82zm28.36 15.89c.28-.73.6-1.68.9-2.8.92.82 1.4 2.53 1.08 3.92-.64-.43-1.3-.81-1.98-1.12zm-5.95-1.38c-.42-.03-.85-.04-1.28-.04.14-.65.24-1.32.3-2 .26-.05.55-.05.84 0-.03.73.02 1.41.14 2.04zm-7.18.93c-.67.24-1.33.51-1.98.83-.18-.69-.39-1.35-.61-2a6.63 6.63 0 0 1 1.79-.7c.24.71.51 1.35.8 1.87zM861.74 71.4c.74.53 5.12 3.98 7.97 8.92a2.74 2.74 0 0 0-3.14 1.58c-2.51-4.05-4.4-9.36-4.83-10.5zm5.15 11c.41-.92 1.41-2.1 3.2-1.4.26.48.5.96.7 1.46-1.4-.2-2.37.68-2.8 1.49-.37-.48-.74-1-1.1-1.55zm4.7 2.26c-.6.38-1.15.79-1.67 1.22a9.41 9.41 0 0 1-1.56-1.48c.39-.8 1.25-1.76 2.7-1.29.2.5.39 1.03.54 1.55zm2.09-18.57c2.98 2.35 5.24 6.65 5.64 11.33a4.32 4.32 0 0 0-3.8.06c-1.1-4.78-1.97-10.38-1.84-11.39zm2.03 12.2c.83-.7 2.34-.8 3.66-.01a17 17 0 0 1-.02 1.65 2.98 2.98 0 0 0-3.22 0l-.42-1.64zm3.35 3.84c-.73.08-1.45.2-2.16.36-.2-.56-.4-1.22-.6-1.93.72-.6 1.92-.66 2.99.07-.05.5-.13 1-.23 1.5zm4.15-12.48c-.7.43-1.52.54-2.32.12-.1-.3-.22-.6-.35-.92.94.36 2.25.17 3.13-.44-.18.43-.33.85-.46 1.24zm3.58-6.22c-.72.82-1.32 1.64-1.8 2.42-.15-1.36-.96-2.8-1.94-3.27-1.9-.91-4.37.16-4.48 2.2a14.24 14.24 0 0 0-2.38-3c3.6-.29 6.98.2 10.6 1.65zm-3.7 3.14c.44-.65.24-1.73-.44-2.03-.68-.3-1.59.06-2.03.7-.44.66-.24 1.5.44 1.8.69.3 1.6.18 2.03-.47zm-2.24 1.51c-1.16-.58-1.84-2.65-1.36-3.94.46-1.25 2.18-1.54 3.3-1 1.11.52 1.94 2.7 1.36 3.94-.58 1.25-2.15 1.58-3.3 1zm.48-1.5c-.45-.2-.58-.72-.3-1.15.3-.43.9-.62 1.35-.42.46.2.59.71.3 1.15-.3.43-.9.61-1.35.41zM900.7 81.1c.35-.26.83-.13 1.06.27.24.4.14.93-.21 1.18-.36.25-.83.13-1.07-.27-.23-.4-.14-.93.22-1.18zm-1.16-4.31c.37-.12.74.12.82.53.09.42-.15.85-.52.97s-.75-.12-.83-.53c-.08-.42.15-.85.53-.97zm-2.27-3.24c.3-.2.72-.1.92.21.2.31.12.72-.19.92-.3.2-.72.1-.92-.21a.66.66 0 0 1 .19-.92zm-3-3.24c.22-.32.64-.32.94 0 .3.31.36.83.14 1.14-.22.32-.64.32-.94 0-.3-.32-.36-.83-.14-1.14zm-2.37-2.17c.33.01.65.28.7.6.04.31-.2.56-.53.54-.34 0-.66-.28-.7-.6-.05-.3.19-.56.53-.54zm-16.67-6.29c5 4.51 6.32 13.63 6.94 13.54.71-.11 0-5.65 5.34-11.68.31.13.63.28.94.43-2.5 3.36-5.95 10.27-6.32 15.38a3.13 3.13 0 0 0-.84.02c.3-5.67-2.25-12.46-8.47-17.3.82-.17 1.62-.3 2.4-.39zm-2.7 22.26l-.46.25c-2.1-7.87-10.7-14.04-11.66-14.72.58 1.55 4.95 13.07 8.98 16.7l-.3.27c-4.36-3.36-8.72-13.5-9.51-18.35 3.1 1.82 10.59 6.1 12.95 15.85zm15.06-.93c-.26-.1-.52-.2-.8-.28 2.34-5.43 2.05-15.9 1.74-16.86-.8 1.95-5.97 10.84-5.1 16.14-.17-.03-.35-.05-.52-.06-1.3-5.3 4.3-14.47 5.9-17.26 1.33 4.68.93 14.55-1.22 18.32zm-7.85-1.12c1.17-6.64-1.75-13.07-6.57-17.2-.18 1.46.8 13.19 3 17.79l-.55.16c-2.52-3.88-3.3-18.3-3.38-20.3 6.62 5.44 9.64 13.8 8.25 19.51-.25 0-.5.02-.75.04zm4.57-4.73c.97-4.04 3.26-8.02 3.86-9.33.23.73.27 5.74-.74 10.42a2.6 2.6 0 0 0-3.12-1.09zm2.65 3c-.79-.99-2.14-1.06-3.04-.75.04-.47.11-.93.2-1.4.86-.85 2.3-.73 3.15.97l-.31 1.17zm-2.97 1.93a9.25 9.25 0 0 1-.12-1.94c.8-.71 2.17-.58 2.9.6-.2.62-.42 1.22-.67 1.78-.7-.18-1.4-.33-2.1-.44zm-32.64-3.55c2.27.1 3.92.64 5.4 1.08 4.12 1.22 6.63 3.91 6.93 3.5.25-.34-1.57-2.42-2.8-4.54a39.19 39.19 0 0 1-3.66-9.04c.5-.51 1.03-.98 1.55-1.4 1.2 5.48 4.54 13.32 8.15 17.18-.29.24-.5.52-.63.78-3.41-3.2-8.53-5.8-15.52-5.95.16-.52.36-1.06.58-1.61zm25.72 5.87c.14.22.42.28.63.15a.45.45 0 0 0 .13-.63.46.46 0 0 0-.63-.14.45.45 0 0 0-.13.62zm-2.49-.71c1.74-.64 3.48-1 5.22-1.1-1.16.73-1.29 2.88-1.3 5.4-1-2.14-2.31-3.95-3.92-4.3zm9.07.08c.1.16.32.21.47.11.16-.1.2-.31.1-.47a.35.35 0 0 0-.48-.11c-.15.1-.2.31-.1.47zm2.45-.47c-1.34.55-2.15 2.07-2.47 4.58l-.02.15c-.25-2.64-.87-4.66-2.05-5.45 1.52.06 3.04.31 4.54.72zm15.85-.54c.64-.41.81-1.26.39-1.9a1.4 1.4 0 0 0-1.92-.44c-.64.4-.81 1.25-.4 1.9a1.4 1.4 0 0 0 1.93.44zm-2.02 3.23c.36.54 1.07.7 1.6.36.54-.34.68-1.05.33-1.58a1.17 1.17 0 0 0-1.6-.37 1.13 1.13 0 0 0-.33 1.59zm-.93 3.2a.9.9 0 0 0 1.23.28c.4-.26.51-.8.25-1.21a.9.9 0 0 0-1.23-.28c-.4.26-.52.8-.25 1.21zm-1.44 2.75c.23.36.7.47 1.06.24.35-.22.45-.7.21-1.05a.78.78 0 0 0-1.06-.24.75.75 0 0 0-.21 1.05zm-6.54-22.81c.35.53 1.07.7 1.6.36.53-.34.68-1.05.32-1.59a1.17 1.17 0 0 0-1.6-.36 1.13 1.13 0 0 0-.32 1.58zm4.56 2.66c.6-.38.76-1.17.37-1.78-.4-.6-1.2-.78-1.8-.4-.6.37-.76 1.17-.36 1.77.39.61 1.2.8 1.8.41zm.97 2.76c.4.6 1.2.78 1.8.4.6-.37.76-1.17.37-1.78-.4-.6-1.2-.78-1.8-.4-.6.37-.76 1.17-.37 1.78zm2.2 3.48c.39.6 1.2.78 1.79.4.6-.37.76-1.17.37-1.78-.4-.6-1.2-.78-1.8-.4-.6.37-.76 1.17-.37 1.78zm-1.39 16.73a21.01 21.01 0 0 0-1.27-3.31c4.79-6.26 3.6-17.04-5.86-19.98-.05-2.3-.4-4.71-1-7.14a27.88 27.88 0 0 1 11.8 10.79 22.4 22.4 0 0 1 2.35 6.12c-.06 4.85-3.13 10.6-6.02 13.52zm-7.25-20.07c.07-.86.12-1.74.12-2.64 1.3.41 2.44.99 3.42 1.68-.52.64-1.05 1.34-1.62 2.03a9.3 9.3 0 0 0-1.92-1.07zm2.35 1.4c.57-.67 1.01-1.34 1.58-2.07.31.25.61.5.89.78-.57.6-1.17 1.26-1.8 1.9a8.38 8.38 0 0 0-.67-.61zm1.06 1.04c.63-.63 1.13-1.27 1.78-1.95a10.95 10.95 0 0 1 2.32 3.87c-.79.3-1.61.68-2.48 1a8.62 8.62 0 0 0-1.62-2.92zm1.62 2.91zm.14.46c.85-.24 1.65-.52 2.55-.8.14.5.25 1 .33 1.5-.84.15-1.73.27-2.65.42a9.42 9.42 0 0 0-.23-1.12zm.3 1.7c.89-.15 1.72-.34 2.64-.52.18 1.57.07 3.19-.31 4.74-.82-.26-1.73-.51-2.62-.8.28-1.14.38-2.3.28-3.43zm-.41 3.86c.85.32 1.68.58 2.6.9-.16.51-.34 1.01-.54 1.5-.74-.45-1.58-.91-2.4-1.42.13-.32.24-.65.34-.98zm-.95 2.28l.4-.8c.77.47 1.55.84 2.4 1.37-.33.72-.73 1.4-1.19 2.04-.47-.92-1.01-1.8-1.61-2.6zm-4.55-10.45c.15-.79.27-1.62.37-2.48.5.2.95.44 1.37.72-.39.65-.81 1.32-1.3 2-.14-.1-.29-.18-.44-.24zm1.62 1.54c.66-.5 1.36-1 2-1.46.33.47.62.98.85 1.5-.75.3-1.56.57-2.41.81-.13-.3-.28-.59-.44-.85zm1.04 2.96c.84-.08 1.71-.13 2.5-.2.07.62.08 1.24.03 1.85a29 29 0 0 1-2.43-.47c0-.4-.04-.79-.1-1.18zm-.31 3.47l.2-.6 2.18 1.02c-.17.51-.38 1-.64 1.47a17.61 17.61 0 0 0-1.74-1.89zm-40.45-7.86a29.21 29.21 0 0 1 5.22-8.02c.32 1.18.7 2.36 1.1 3.48a2.97 2.97 0 0 0-3.8.57c-.87 1.1-1.1 3.17-.27 4.17-.7-.09-1.46-.15-2.25-.2zm8.22-.34c-.27.87-.84 1.33-1.93 1.58-.3-.12-.62-.24-.95-.35 1.39-.34 2.04-1.3 2.2-2.52.23.47.45.9.68 1.29zm-4.16-.79c-.45-.16-.62-.66-.39-1.1.23-.44.78-.66 1.22-.5.44.17.62.66.39 1.1-.23.45-.78.67-1.22.5zm35.74 8.42l-.74-.58c.4-1.68-.28-3.88-1.39-4.83.1-.4.2-.81.29-1.24 1.65.39 2.59 4.37 1.84 6.65zm-34.1-8.7c.34-.72.08-1.53-.58-1.8-.66-.28-1.47.08-1.81.8-.35.73-.1 1.54.57 1.81.66.28 1.47-.09 1.81-.81zm-1.98 1.82c-1.4-.4-1.63-1.7-1.32-3.12.36-1.63 1.88-2.1 3.1-1.72 1.22.4 1.8 1.79 1.31 3.12-.49 1.34-1.86 2.06-3.1 1.72zm48.5 4.85c.41 2.28.62 4.66.65 6.92l-.21.53a9.57 9.57 0 0 0-1.4-3.76c.46-1.23.81-2.48.96-3.69zM901.51 90c.74.84 1.24 2.2 1.27 3.36-.25.34-.51.66-.79.97a7.9 7.9 0 0 0-1.34-2.82c.3-.49.58-1 .86-1.51zm-2.45 3.93c.41.8.62 1.67.67 2.5-.35.27-.7.52-1.04.75a8.91 8.91 0 0 0-.55-2.06c.28-.34.6-.75.92-1.2zm-1.17-2.04a.31.31 0 0 1 .09-.44c.15-.1.35-.05.44.1.1.15.06.35-.09.44a.33.33 0 0 1-.44-.1zm1.46-2.73a.48.48 0 0 1 .12-.63c.2-.14.46-.07.59.14.13.22.07.5-.12.64-.2.13-.46.07-.6-.15zm.98-3.24c-.17-.31-.1-.72.17-.9.26-.2.62-.1.8.2.17.3.1.71-.17.9-.26.2-.62.1-.8-.2zm-2.32 12.9l-.03-.47c2.21-1.4 5.24-4 6.46-6.89a36.43 36.43 0 0 1-.18 3.11c-1.46 2.48-4.5 3.67-6.25 4.25zm-8.22-12.08c.1.17.33.22.49.11.16-.1.2-.31.1-.47a.35.35 0 0 0-.49-.11c-.16.1-.2.31-.1.47zm-1.31-2.28c1.27.72 2.46 1.7 3.54 2.83-1.2.32-2.53 1.25-3.81 2.98.61-2.34.73-4.56.27-5.81zm5.93 8.03c.12.2.38.25.57.13a.4.4 0 0 0 .11-.56.41.41 0 0 0-.57-.13.4.4 0 0 0-.11.56zm2 1.51c-1.4-.18-3.25.34-5.31 1.37 1.91-2.06 2.75-3.9 2.85-5.77a16.8 16.8 0 0 1 2.47 4.4zm-7.93 4.91c3.22-1.36 5.86-2.16 6-1.86.19.37-2.76 1.84-5.78 2.58a7.27 7.27 0 0 0-.22-.72zm.22.72zm-1.83-3.3c1.98-3.05 4-5.75 4.22-5.54.3.29-1.29 3.63-3.84 5.95a6.47 6.47 0 0 0-.38-.41zm-2.3-1.49l-.46-.17c.84-3.96 1.91-7.16 2.3-7.15.66.04-.39 4.22-1.84 7.32zm-2.75-.57c-.23 0-.47 0-.7.03-.49-4.75-.65-8.3-.22-8.43.74-.22 1.1 4.8.92 8.4zm-6.96-6.8c.75-.64 3.2 4.36 3.59 7.47-2.38-4.28-3.94-7.17-3.59-7.47zm3.59 7.47zm10.38 5.36c3.5-1.1 6.72-2.8 6.34-3.5-.64-1.2-3.3.09-6.87 1.66a7.3 7.3 0 0 0-.3-.6c4.72-3.16 8.6-3.98 8.96-1.92.36 2.05-2.75 3.6-8.1 4.68l-.03-.32zm4.65-11.32c.17 1.87-1.3 5.68-5.8 8.35a7.93 7.93 0 0 0-.13-.2c3.59-2.84 5.03-6.6 4.1-7.15-.74-.45-2.72 2.37-5.15 6-.12-.1-.23-.2-.36-.28 2.05-5.5 4.95-7.84 6.37-7.88.34.38.66.77.97 1.16zm-8.04 6.28a7.96 7.96 0 0 0-.38-.2c1.59-3.38 2.52-7.91 1.56-8.28-1.03-.4-1.97 3.53-2.96 7.75a10.6 10.6 0 0 0-.22-.06c.62-5.03 1.54-11.62 3.83-10.48 2.16 1.07.5 7.24-1.83 11.27zm-3.09-.97c.37-5.32-.34-9.2-1.48-9.18-1.06.01-.71 3.99-.2 9.26l-.4.08c-1.8-5.4-1.69-11.4.6-10.98 2.04.38 2.75 4.54 1.93 10.88l-.45-.06zm-3.07.52c-.83-3.6-3.42-8.92-4.75-8.03-1.17.78 1.08 4.42 3.54 8.8l-.19.15c-3.31-4.3-5.93-9.88-4.55-10.82 1.06-.74 3.12.25 4.62 3.6.69 1.54 1.16 3.88 1.6 6.18l-.27.12zm.27-.12zm-10.86-7.65c-.29.3-.55.62-.8.94-.4-.48-.84-.95-1.31-1.42.15-.25.36-.53.65-.74.48.49.97.9 1.46 1.22zm-3.14 8.05c.13-.94.33-1.87.63-2.77 1.01 1.67 4.1 4.32 6.57 4.33-.08.33-.13.66-.18 1-1.98.57-5.24-.68-7.02-2.56zm6.87-10.25l.1-.06c-.47 1.63.38 4.47 2.4 7.63-.17.18-.33.37-.48.57-1.52-.9-3.71-5-3.67-7.13.51-.37 1.06-.71 1.65-1.01zm.89 7.98c.27.25.55.44.83.57-.55.8-.97 1.71-1.25 2.68a5.09 5.09 0 0 1-.99-.26c.24-.92.73-2.05 1.4-2.99zm-.6-.63l.25.29c-.69.95-1.27 2.1-1.54 3.13a9.06 9.06 0 0 1-.8-.42 9.48 9.48 0 0 1 2.08-3zm-.9-1.25c.2.3.39.6.59.87-.91.88-1.78 2.04-2.24 3.1-.28-.17-.56-.37-.84-.59a9.24 9.24 0 0 1 2.5-3.38zm-.24-.44c-1.07.9-2.14 2.25-2.67 3.48-.29-.24-.56-.5-.82-.76a9.66 9.66 0 0 1 3.13-3.41l.36.69zm-.59-1.2a10.34 10.34 0 0 0-3.23 3.57c-.2-.23-.4-.47-.57-.71.59-1.33 1.95-3.18 3.4-3.9.11.34.25.7.4 1.05zm-.85-2.95c.03.39.13.85.27 1.34a10.5 10.5 0 0 0-3.56 3.95 5.8 5.8 0 0 1-.25-.44 12.72 12.72 0 0 1 3.54-4.85zm-15.73-3.49c2.26.1 5.68 1.4 8.9 3.7a2.69 2.69 0 0 0-1.73 2.35c-3.14-2.24-6.15-5.29-7.17-6.05zm9 7.24c-.33-.19-.67-.4-1-.62-.2-1.03-.04-2.31 1.56-2.42.35.27.7.55 1.04.85-.97.39-1.47 1.35-1.6 2.2zm3.4-.49c-.3.53-.57 1.07-.8 1.62a9.49 9.49 0 0 1-2-.8c-.14-.86.4-1.8 1.48-2.1.45.4.89.83 1.31 1.28zm-3.71 6.28c-.24-1.73-.8-3.4-1.67-4.71 1.1.83 2.15 1.59 3.08 2.2-.66.42-1.14 1.44-1.41 2.51zm4.19-7.06c-2.38-2.37-4.72-4.12-6.95-4.98-3.32-1.28-6.06-1.42-8.05-2 3.57 2.58 9.2 9.12 13.38 10.23l-.33 1.04c-4.2-1.98-11.7-9.18-14.66-12.25 5.64.24 12.46 2.31 16.74 7.76l-.13.2zM866.13 102c.4-.8 1.29-1.21 1.23-1.41-.07-.22-.91-.1-1.63-.2a16.3 16.3 0 0 1-.18-1.1c2.03.6 3.5.48 5.18.58-1.5.69-3.35 1.92-4.19 3.31-.15-.38-.29-.77-.41-1.18zm21.97 3.68c.09-.09.23-.1.32-.02.08.08.08.22-.01.31-.1.09-.24.1-.33.02-.08-.08-.08-.22.02-.3zm-13.7-5.46a.26.26 0 0 1 .35.08c.07.11.04.27-.08.34a.26.26 0 0 1-.35-.08.25.25 0 0 1 .07-.34zm.27-2.77c.13-.08.3-.04.38.09.08.13.05.3-.08.37a.28.28 0 0 1-.38-.08.27.27 0 0 1 .08-.38zm.66-1.95a.26.26 0 0 1 .07-.36.27.27 0 0 1 .36.09c.08.12.05.28-.07.35a.26.26 0 0 1-.36-.08zm-3.89 2.75c-.01.3-.02.61-.01.92-.34.08-.7.13-1.07.17 0-.36.02-.74.06-1.12.34.04.68.05 1.02.03zm-2.57-.42c-.1.5-.2 1.01-.25 1.52-.44-.04-.88-.1-1.3-.18.05-.58.17-1.22.34-1.87.39.2.8.38 1.21.53zm-3.4-2.06c.21.2.45.4.7.6-.14.77-.24 1.61-.24 2.42a6.79 6.79 0 0 1-.45-.19c-.08-.94-.08-1.89 0-2.83zm33.2 11.18a.9.9 0 0 0 1.16.25c.39-.23.5-.72.24-1.08a.9.9 0 0 0-1.17-.25.74.74 0 0 0-.24 1.08zm-.63.51c-.53-.81-.31-1.9.5-2.4.8-.52 1.89-.27 2.42.55.53.81.31 1.89-.5 2.4-.8.51-1.89.27-2.42-.55zm.96-1c-.04-.2.11-.35.34-.34.23.01.46.2.5.4.04.2-.11.36-.34.35-.23-.01-.46-.2-.5-.4zm.1-4.87c.17.68.95 1.1 1.72.92.78-.17 1.27-.85 1.1-1.53-.18-.68-.96-1.1-1.74-.93-.78.17-1.26.86-1.09 1.54zm.9-2.66a2.29 2.29 0 0 1 2.8 1.8 2.54 2.54 0 0 1-1.77 3.01 2.29 2.29 0 0 1-2.8-1.81 2.54 2.54 0 0 1 1.77-3zm-.44 2.28c-.04-.43.36-.79.9-.8.55 0 1.02.35 1.07.78.04.43-.36.78-.9.79-.55 0-1.03-.34-1.07-.77zm-10.67-.07c3.78.2 9.47-.42 7.96 3.25-.9 2.2-4.69.9-8.52-1.05l.16-.31c2.98 1.18 6.5 1.8 6.77.85.33-1.15-2.74-1.84-6.38-2.5v-.24zm15.26-5.57a56.29 56.29 0 0 1-.72 4.59 3.39 3.39 0 0 0-2.58-2c1.2-.67 2.42-1.54 3.3-2.59zm-7.36 4.63c.16-.1.2-.3.1-.46a.34.34 0 0 0-.47-.1c-.15.1-.2.3-.1.46.1.16.32.2.47.1zm.47-2.74c.2 1.44.22 2.87.18 4.37-1.26-1.19-3.79-1.2-6.3-1.14 2.82-.71 5.03-1.68 6.12-3.23zm-5.64 7.95c2.6 1.14 4.27.77 5.42.06-.17.83-.41 1.63-.73 2.4-1.94-.1-3.74-.72-5.03-2.1l.34-.36zm3.2-1.65c-.1.53-3.29-.03-6.17-1.13.08-.23.14-.47.18-.72 3.43.64 6.1 1.28 6 1.85zm-20.08-.4c.15.22.46.3.68.15a.48.48 0 0 0 .14-.67.5.5 0 0 0-.68-.16.48.48 0 0 0-.14.67zm.2-2.39c.3-.19.38-.58.18-.88a.65.65 0 0 0-.88-.2.63.63 0 0 0-.18.88c.2.3.59.39.88.2zm-.65-2.93c.2.3.62.4.92.2.3-.19.4-.6.19-.9a.68.68 0 0 0-.92-.22c-.3.2-.4.6-.19.92zm.78-2.27c.2.3.6.39.89.2.3-.19.37-.58.18-.88a.65.65 0 0 0-.89-.2.63.63 0 0 0-.18.88zm13.73 10.2c.16-.28.06-.57-.22-.64-.28-.08-.64.08-.8.36-.17.27-.07.56.21.63.28.08.64-.08.8-.36zm-3.48 1.48c.15.22.44.29.66.15a.46.46 0 0 0 .13-.65.48.48 0 0 0-.65-.14.46.46 0 0 0-.14.64zm-2.3.6a.4.4 0 0 0 .55.12.38.38 0 0 0 .1-.53.4.4 0 0 0-.53-.13.38.38 0 0 0-.11.54zm-2.16-.12c.13.2.4.26.6.14.2-.13.25-.4.12-.6a.44.44 0 0 0-.6-.13c-.2.12-.25.39-.12.6zm-2.37-.75a.4.4 0 0 0 .55.13.4.4 0 0 0 .11-.55.4.4 0 0 0-.55-.13.4.4 0 0 0-.11.55zm-2.23-1.58c.15.23.46.3.68.16a.48.48 0 0 0 .14-.68.5.5 0 0 0-.68-.15.48.48 0 0 0-.14.67zm1.22-9.5a5.33 5.33 0 0 0-.41 7.35c2.21 2.8 5.65 3.77 8.74 2.16a6.29 6.29 0 0 0 2.23-1.82c.9.46 1.72.76 2.41 1.07-4 4.47-10.24 5.28-14.03 1.84-3.79-3.43-4.6-9.85-1.07-13.63.64.97 1.4 2.07 2.13 3.03zm1.77 3.85c-.02.12-.03.25-.03.37-.75-.07-1.62-.12-2.56-.17 0-.35.03-.7.1-1.04.9.3 1.75.61 2.5.84zm.19-.7c-.05.12-.09.25-.12.37-.71-.27-1.57-.56-2.47-.87.06-.25.15-.5.26-.74.82.43 1.62.89 2.33 1.24zm-2.64 2.15a5.32 5.32 0 0 1-.13-.88c.9.04 1.79.12 2.54.13 0 .17.02.35.05.53-.73.04-1.57.13-2.46.22zm2.97-2.77l-.2.31c-.66-.39-1.46-.8-2.3-1.26.12-.24.27-.46.43-.67.74.56 1.44 1.15 2.07 1.62zm.43-.45c-.08.06-.15.12-.21.2-.59-.51-1.3-1.06-2.05-1.66.18-.19.37-.36.57-.52.6.7 1.17 1.4 1.69 1.98zm.63-.38c-.13.05-.25.11-.36.18-.46-.6-1.04-1.27-1.65-2 .26-.16.55-.3.86-.42.42.79.79 1.58 1.15 2.24zm.87-.21c-.2.02-.38.05-.55.1-.3-.67-.7-1.43-1.1-2.24.42-.12.85-.18 1.28-.19.13.83.24 1.62.37 2.33zm.86 0a4.36 4.36 0 0 0-.53-.02c-.07-.7-.2-1.46-.32-2.3.28 0 .55.04.83.09.01.8 0 1.54.02 2.23zm.91.2a4.22 4.22 0 0 0-.57-.15c.03-.66.01-1.4.01-2.2.26.05.5.13.76.21-.07.77-.16 1.48-.2 2.14zm.76.36c-.14-.1-.3-.18-.47-.25.1-.64.2-1.34.28-2.1.35.13.7.3 1.05.49l-.86 1.86zm.6.55c-.1-.13-.22-.26-.35-.37.28-.56.62-1.17.94-1.85.32.19.6.4.87.63-.5.56-1.03 1.1-1.46 1.6zm.38.75l-.14-.35c.45-.5.98-1.1 1.5-1.73.26.26.49.53.68.82-.72.46-1.42.86-2.04 1.26zm.18.67a4.66 4.66 0 0 0-.09-.38c.64-.36 1.38-.74 2.15-1.23.27.47.44.96.52 1.46-.89.07-1.81.09-2.58.15zm.09 1.1c0-.23 0-.48-.04-.73.76-.02 1.63-.04 2.58-.11.03.4.04.78.01 1.15-.9-.1-1.78-.22-2.55-.3zm-.07.66l.05-.36c.75.13 1.6.3 2.53.42-.06.4-.16.77-.3 1.13-.81-.4-1.6-.82-2.28-1.19zm-.24.73c.07-.14.12-.28.17-.43.64.37 1.36.83 2.18 1.25-.17.3-.37.59-.63.85-.59-.6-1.21-1.17-1.72-1.67zm-.46.62l.29-.33c.45.51.97 1.11 1.48 1.74-.18.14-.38.27-.6.39-.4-.64-.82-1.26-1.17-1.8zm-.89.5c.24-.08.45-.18.63-.3l1 1.8c-.32.14-.66.25-1 .33l-.63-1.83zm-.98.2c.23-.03.45-.07.67-.12.18.56.38 1.18.57 1.83-.34.06-.68.1-1.02.1l-.22-1.81zm-1.18-.03c.28.04.56.06.85.05.05.56.11 1.16.15 1.8a6.96 6.96 0 0 1-1.13-.15c.04-.59.1-1.17.13-1.7zm-.76-.24a3 3 0 0 0 .47.17l-.19 1.7c-.35-.1-.69-.22-1.02-.36l.74-1.5zm-.7-.47c.12.12.26.23.4.32-.23.47-.5.98-.78 1.5a6.4 6.4 0 0 1-1.27-.85l1.65-.97zm-.56-.76c.1.2.21.37.33.52-.52.3-1.08.64-1.69.97a5.93 5.93 0 0 1-.65-.75c.7-.26 1.4-.5 2.02-.74zm-2.24.41c-.21-.34-.38-.7-.5-1.08.85-.1 1.7-.16 2.43-.24.05.2.11.42.19.62-.64.22-1.36.46-2.12.7zm5.86-1.07c.62-.4.8-1.23.38-1.86a1.38 1.38 0 0 0-1.88-.43c-.63.4-.8 1.23-.39 1.87.42.63 1.26.82 1.89.42zm-3.18.22c-.4-1.47-.17-3.23 1.23-3.72 1.61-.57 3.18.34 3.44 2.1.18 1.23.04 2.32-1.26 2.7-1.24.35-2.98.5-3.41-1.08zm2-.95c-.17-.31-.1-.73.17-.92.27-.2.62-.1.8.2.18.32.1.74-.16.94-.27.2-.63.1-.8-.22zm-22.37-2.49c-.23.12-.46.24-.68.38-.56-2.2-3.18-4.87-4.42-5.53.05.98 1.31 4.9 2.66 6.91l-.41.43c-1.6-1.69-3.6-5.73-3.5-9.22 3.28 1.12 5.96 3.33 6.35 7.03zm-2.04 1.39a11.06 11.06 0 0 1-2.13-5.26c.87.61 2.54 2.57 3.08 4.52-.33.22-.64.47-.95.74zm7.53-6.32a18.78 18.78 0 0 0-.52 3.91c-.41-.02-.81-.02-1.21 0 .02-1.64.53-3.94 1.73-3.9zm-2.75 4.03c-.43-1.95-1.08-3.92-1.6-4.73-.19.91 0 3.13.36 5.02-.19.06-.37.12-.56.2-1.4-2.32-1.37-6.83-1.03-8.09 1.9 1.71 3.15 4.03 3.12 7.56l-.3.04zm-.4.08c-.18.03-.36.08-.54.13a6.48 6.48 0 0 1-.23-2.78c.43.83.6 1.49.78 2.65zm-6.46 4.7a13.33 13.33 0 0 0-3.06-2.44c-.31-.83-.6-1.68-.87-2.55 1.7.75 3.73 2.7 4.63 3.98-.25.32-.48.66-.7 1.02zm3.52-13.06c-.16.99-.23 3.17-.03 5.3-1.52-1.92-3.96-3.26-6.14-4.01A15.1 15.1 0 0 0 854.9 99a24.9 24.9 0 0 0-3.56-2.66 37.81 37.81 0 0 1-1.38-8.33 13.7 13.7 0 0 1 7.75 3.74c.13.14.4.06.36-.16a9.9 9.9 0 0 1 .03-3.05l1 .83zm-8.28-1.75c-.3-.05-.6-.1-.9-.13-.05-2.08.1-4.1.53-5.99l1.12 1.12a14.83 14.83 0 0 0-.75 5zm1.23.3c-.27-.08-.54-.15-.82-.21-.06-1.53.2-3.3.67-4.76l1.08 1.04c-.47 1.15-.8 2.62-.93 3.92zm1.45.47l-1-.35c.12-1.24.43-2.57.86-3.7l.6.56a15.16 15.16 0 0 0-.46 3.5zm.93.4l-.57-.25c.02-1.1.17-2.28.42-3.34l.74.67c-.35.93-.55 2-.6 2.92zm1.1.58a13.6 13.6 0 0 0-.74-.4c.02-.92.21-1.92.53-2.83l.7.62c-.28.86-.45 1.8-.48 2.61zm1 .64l-.6-.4c0-.82.16-1.72.42-2.56l.6.52c-.27.84-.41 1.72-.43 2.44zm.9.77a6.5 6.5 0 0 0-.54-.49c-.02-.77.12-1.63.36-2.46l.33.28a10.71 10.71 0 0 0-.15 2.67zm-1 16.71c-.43-.57-.83-1.17-1.2-1.8.54.17 1.13.42 1.63.65-.15.37-.3.75-.44 1.15zm2.15-4.14c-.26.35-.51.72-.75 1.11a9.47 9.47 0 0 0-1.87-1.03c.3-.5.63-.97 1-1.42.6.38 1.2.9 1.62 1.34zm1.55-1.66a7.52 7.52 0 0 0-1.42-1.49c.42-.34.86-.64 1.32-.9a7.2 7.2 0 0 1 1 1.69c-.31.21-.61.45-.9.7zm.9-.7zm1.59-.89a7.7 7.7 0 0 0-.63-1.59c.45-.1.92-.18 1.4-.22.06.5.08 1.02.1 1.5-.3.08-.59.19-.87.31zm14.47 7.65c.4.25.82.48 1.24.68-.16 1.5-1.26 2.86-.74 3.12.43.21.72-1.22 1.88-2.65.52.19 1.05.33 1.58.44-.95 1.6-2.43 3.6-4.3 4.83-.56-1.94-.2-4.77.34-6.42zm-3.32-3.52c.27.5.58.98.93 1.42-.68 1.33-2.03 2.34-1.76 2.64.2.22.9-.94 2.43-1.88.31.32.65.6 1.01.87-.47.87-4.2 4.1-5.43 3.4-.19-2.07 1.78-4.79 2.82-6.45zm-6.96-.36v-.01c1.47-2.76 4.02-3.53 5.71-3.92.04.46.1.92.2 1.37-1.14.84-2.63 1.16-2.54 1.57.08.38 1.11-.38 2.77-.66.14.47.3.93.51 1.38-2 .95-4.23.82-6.65.27zm14.47 11.73c-.67-1.05-.1-2.34-.77-2.39-.45-.03-.56 1.4-1.4 2.06-.65-.14-1.28-.32-1.9-.53a13.91 13.91 0 0 0 3.97-4.44c.1 1.54.68 3.96 1.84 5.4-.58 0-1.16-.04-1.74-.1zm8.1-1.12c-.53.18-1.06.35-1.6.5-1.15-.58-1.05-2.01-1.57-1.87-.44.12-.05 1.64-.9 2.43-.4.06-.8.1-1.18.14a15.5 15.5 0 0 0 1.8-5.95c.71 1.43 1.93 3.75 3.44 4.75zm-7.59-5.02c.49.06.97.09 1.46.08.13 1.3-.16 2.59.18 2.63.28.03.18-1.15.6-2.67.42-.04.85-.11 1.28-.21-.06 1.82-.47 4.66-1.85 6.16-1.07-1.33-1.82-3.78-1.67-5.99zm-13.75-3.09c-.27-.51-.54-1.02-.79-1.54 2.14.1 4.09.08 5.76-.3-1.07 1.3-2.38 3.8-2.59 5.58-.37-.44-.73-.9-1.06-1.4.06-1.43 1.55-2.62 1.32-2.86-.24-.25-1.44.88-2.64.52zm8.27 8.02c-.4-.16-.8-.35-1.18-.55-.38-1.36.13-2.85-.08-2.96-.3-.15-.93 1.4-2.05 1.6-.46-.34-.91-.71-1.35-1.11a10.6 10.6 0 0 0 4.76-3.2c-.47 1.64-.65 4.53-.1 6.22zm19.72-5.88c-1.15 2.6-2.03 3.84-3.9 4.84a7.78 7.78 0 0 1-.39-.2c1.36-.7 2.98-2.84 3.33-4.72.31.04.63.07.96.08zm-2.26-.32c.21.06.44.1.67.15-.27 1.57-1.49 3.87-3.22 4.47a9.16 9.16 0 0 1-.79-.6 7.04 7.04 0 0 0 3.34-4.02zm-1.44-.5c.3.14.62.26.95.36-.47 1.48-1.68 3.35-3.3 3.76l-.48-.51a5.75 5.75 0 0 0 2.83-3.61zm-.95-.5l.56.31a4.92 4.92 0 0 1-2.8 3.37c-.27-.33-.5-.67-.72-1.03a5.46 5.46 0 0 0 2.96-2.66zm-.9-.67l.5.4a4.21 4.21 0 0 1-2.84 2.43c-.15-.3-.3-.62-.4-.94.93-.47 1.86-1.1 2.75-1.9zm6.04 2.48c.96.3 1.82.55 3.31.17-.33.49-.7.96-1.1 1.42-1.06.11-1.97-.09-2.6-.79l.39-.8zm-1.8 3c.21-.24.4-.5.59-.77.38.47.8.89 1.54 1.22-.26.23-.54.45-.83.67a3.6 3.6 0 0 1-1.3-1.11zm-8.22-3.06l.4-.15a9.96 9.96 0 0 0 4.64 4.85c-.42.2-.89.38-1.41.57-2.01-1.54-2.9-3.34-3.63-5.27zm-21.16-6c.15.51.33 1 .53 1.5a9.71 9.71 0 0 0-3.61 2.98c-.07.05-.26.64.16.37.73-1.14 2.17-2.13 3.7-2.77.24.51.5.96.77 1.45-2 1.22-3.4 2.14-3.86 3.5-.66 1.91-2.06 2.22-2.7 1.62-.59-.54-1.02-2.1-.38-3.5.37-.82.9-1.6 1.57-2.34a10.62 10.62 0 0 1 3.82-2.8zm-.45-1.86c-2.04.63-3.85 1.92-4.55 2.84-.08.04-.33.6.12.37a11.71 11.71 0 0 1 4.55-2.63l.2.86c-2.22.79-4.42 2.59-5.56 4.76-.7 1.33-1.36 1.32-1.98 1.18-.8-.17-.73-1.1-.13-2.36 1.52-3.18 4-5.72 7.22-5.92l.13.9zm11.58 14.01a7.5 7.5 0 0 0-.7 3.1c-.46-.06-.9-.15-1.35-.24.08-1.18.57-2.5 1.16-3.25l.89.4zm2.88.89c-.17.74-.33 1.7-.34 2.52a23 23 0 0 1-1.12-.05c.05-.9.25-1.91.52-2.7.31.09.63.16.94.23zm2.87.31c-.04.6 0 1.34.15 2.03-.44.06-.87.1-1.3.13-.05-.75-.04-1.55.05-2.21.37.03.74.05 1.1.05zm2.7-.17c-.07.49-.04.98.23 1.7-.38.1-.76.17-1.14.24a5.5 5.5 0 0 1-.06-1.84l.96-.1zm2.48-.43c.12.44.3.85.73 1.35l-.97.29a3.6 3.6 0 0 1-.59-1.47c.28-.05.56-.1.83-.17zm3.07-.9c.16.38.37.72.76 1.09l-1.2.5c-.3-.36-.54-.76-.7-1.2.4-.12.77-.25 1.14-.39zm2.2-1.06c.35-.21.67-.43.96-.66.2.38.47.7.94 1.05-.37.23-.74.45-1.12.66a3.6 3.6 0 0 1-.78-1.05zm-24.9-5.82a8.65 8.65 0 0 0-2.79 3.3c-.06.06-.04.68.3.34a7.38 7.38 0 0 1 2.8-3.19c.29.39.58.76.88 1.13-1.53.86-2.56 2.11-2.71 3.39a1.45 1.45 0 0 1-2.13 1.28c-.93-.64-1.17-1.6-.8-3.22.33-1.48 1.25-2.78 3.84-3.98l.61.95zm2.17 2.67a7.32 7.32 0 0 0-1.93 2.51c-.12.24-.05.67.3.35a6 6 0 0 1 2-2.47l.58.54a8.18 8.18 0 0 0-1.28 3.02c-.26 1.4-1.36 1.52-1.87 1.22-.69-.4-1.56-1.28-.97-2.91a4.99 4.99 0 0 1 2.53-2.96c.2.24.42.47.64.7zm2.25 2.03c-.58.55-1 1.13-1.2 1.62-.12.21-.04.66.3.38a4.3 4.3 0 0 1 1.33-1.68c.42.3.85.59 1.29.86a4.8 4.8 0 0 0-1.58 2.44c-.28 1.08-.34 1.13-1.04.92-.68-.22-1.2-.83-1.12-2.1a5.61 5.61 0 0 1 1.16-3.15c.28.25.57.48.86.7zm-16.94-9.62c-.26.46-.5.96-.71 1.48a38.35 38.35 0 0 1-1.72-3.72c1.04.41 2 1.68 2.43 2.24zm-1.51 1.67c3.67 7.43 11.15 11.73 19.06 13.6 7.5 1.76 15.39.42 22.11-3.79 7.34-4.59 9.32-11.72 9.94-19.47.5-6.27-.4-14.81-3.32-20.07-2.98-5.39-7.12-8.58-13.09-11.5-5.75-2.83-10.74-2.9-16.37-1.7a40.02 40.02 0 0 0-13.15 5.64c-4.16 2.7-8.05 9.06-9.29 13.51-1.79 6.4.24 15.97 4.1 23.78z"/><path id="qb9bb" d="M938.89 115.74l2.04-2.5h1.28l-2.15 2.5 2.59 3.1h-1.25l-1.97-2.42-.54.63v1.8h-.97v-5.6h.97zm4.92-2.5h1.09l2 4.05 1.83-4.05h1.07l-4.13 8.76h-1.08l1.8-3.7zm8.74 5.6h-.97v-5.6h4.52v5.6h-.97v-4.74h-2.58zm11.37-5.6v5.6h-.97v-.78c-.5.63-1.15.94-1.94.94-.5 0-.96-.13-1.37-.4a2.66 2.66 0 0 1-.96-1.07 3.45 3.45 0 0 1 0-3.02 2.57 2.57 0 0 1 2.36-1.4c.76 0 1.4.31 1.91.94v-.8zm-4.37 3.84a1.7 1.7 0 0 0 1.6 1.03c.56 0 1.02-.19 1.36-.58.35-.4.52-.9.52-1.53 0-.4-.07-.74-.23-1.05a1.75 1.75 0 0 0-1.65-.98c-.33 0-.64.09-.92.27a2.1 2.1 0 0 0-.92 1.76c0 .39.08.75.24 1.08zm8.13-2.98v2.06c0 1.4-.26 2.3-.8 2.68h-1.21c.7-.48 1.05-1.39 1.05-2.71v-2.89h3.91v5.6h-1v-4.74zm4.98-.86h.97v2.32h.64c.58 0 1.02.06 1.33.19.34.11.58.3.73.55.14.26.22.58.22.96 0 .49-.21.88-.64 1.17-.44.28-1 .41-1.66.41h-1.6zm1.58 4.74c.45 0 .8-.04 1.02-.12.23-.09.34-.29.34-.6 0-.4-.1-.63-.33-.72-.2-.1-.55-.15-1.03-.15h-.61v1.6zm5.37.86h-.97v-5.6h.97v2.13h2.57v-2.13h.97v5.6h-.97v-2.6h-2.57zm7.1-2.07l3.55-3.88v5.95h-.97v-3.53l-3.54 3.83v-5.9h.97zm7.11-1.03l2.04-2.5h1.29l-2.16 2.5 2.6 3.1h-1.25l-1.97-2.42-.55.63v1.8h-.97v-5.6h.97zm6.7 1.03l3.55-3.88v5.95h-.97v-3.53l-3.55 3.83v-5.9h.97zm10.15 0l3.55-3.88v5.95h-.97v-3.53l-3.55 3.83v-5.9h.97zm10.15 2.07h-.97v-5.6h4.52v5.6h-.97v-4.74h-2.58zm7.16-4.74v2.06c0 1.4-.27 2.3-.8 2.68h-1.22c.7-.48 1.05-1.39 1.05-2.71v-2.89h3.92v5.6h-1v-4.74zm6.07 4.73l-1.18.01 1.38-2.23a1.23 1.23 0 0 1-.53-.3 1.85 1.85 0 0 1-.54-1.32c0-.58.18-1.02.54-1.31.35-.3.93-.44 1.72-.44h1.7v5.6h-.97v-2.03h-.98zm2.12-4.78h-.7c-.41 0-.75.05-1.01.16-.26.1-.4.37-.4.78 0 .4.13.66.38.78.26.1.56.16.92.16h.8zm7.78-.8v2.47l2.02-2.48h1.3l-2.16 2.5 2.6 3.1-1.25.01-1.96-2.43-.55.62v1.8h-.97v-1.8l-.54-.62-1.97 2.42h-1.25l2.6-3.1-2.16-2.5h1.28l2.04 2.5v-2.5zm6.57 5.6h-.97v-5.6h.97v2.12h2.57v-2.13h.97v5.6h-.97v-2.6h-2.57zm11.37-5.6v5.6h-.97v-.79c-.5.63-1.15.94-1.94.94-.5 0-.96-.13-1.37-.4a2.66 2.66 0 0 1-.96-1.07 3.45 3.45 0 0 1 0-3.02 2.57 2.57 0 0 1 2.36-1.4c.76 0 1.4.31 1.91.94v-.8zm-4.37 3.83a1.71 1.71 0 0 0 1.6 1.03c.56 0 1.02-.19 1.36-.58.35-.4.52-.9.52-1.53 0-.4-.08-.74-.23-1.05a1.75 1.75 0 0 0-1.66-.98c-.32 0-.63.09-.91.27a2.1 2.1 0 0 0-.92 1.76c0 .39.08.75.24 1.08zm7.66 1.75l-1.17.01 1.38-2.23a1.23 1.23 0 0 1-.53-.3 1.85 1.85 0 0 1-.55-1.32c0-.58.18-1.02.54-1.31.36-.3.93-.44 1.72-.44h1.7v5.6h-.97v-2.03h-.97zm2.12-4.78h-.7c-.41 0-.75.05-1 .16-.27.1-.4.37-.4.78 0 .4.13.66.37.78.26.1.57.16.92.16h.81zm6.82.54a2.9 2.9 0 0 1 2.54-1.48c.43 0 .82.07 1.18.22.36.14.67.35.94.63.28.27.5.6.64.96a3.1 3.1 0 0 1-.18 2.64c-.25.44-.6.8-1.07 1.05a3.04 3.04 0 0 1-2.98.01 2.93 2.93 0 0 1-1.07-4.03zm1.15 2.94c.38.4.85.59 1.4.59.37 0 .71-.09 1.02-.26.32-.17.56-.41.73-.72.17-.3.25-.66.25-1.06 0-.42-.09-.78-.26-1.1a1.83 1.83 0 0 0-.72-.73 2.07 2.07 0 0 0-2.02.01c-.3.18-.54.43-.71.74a2.2 2.2 0 0 0-.26 1.08 2 2 0 0 0 .57 1.45zm6.8.06c.23-.24.4-.52.5-.85.14-.34.2-.68.2-1.02v-2.48h4.14v4.72h.97v2.69h-.97v-1.8h-4.76v1.8h-1V118h.3c.23-.05.44-.2.62-.42zm3.9.37v-3.83h-2.28v1.67c0 .96-.25 1.68-.75 2.16zm4.53-1.72c0 .18.02.35.06.5.04.15.1.3.2.48a1.68 1.68 0 0 0 1.5.9c.4 0 .72-.09.98-.26.25-.16.5-.46.77-.9l.8.45c-.27.49-.63.88-1.08 1.16-.44.29-.95.43-1.5.43a2.54 2.54 0 0 1-2.38-1.43 3.35 3.35 0 0 1-.35-1.52c0-.56.12-1.06.35-1.52a2.53 2.53 0 0 1 2.38-1.42c.57 0 1.06.14 1.46.42.4.27.7.65.9 1.13.18.48.28 1 .28 1.58zm3.07-1.54a1.82 1.82 0 0 0-.6-.53 3.98 3.98 0 0 0-.3-.1 1.61 1.61 0 0 0-1.53.34c-.31.26-.5.6-.56 1.02h3.3a1.84 1.84 0 0 0-.31-.73zm7.86-1.46v2.48l2.03-2.48h1.3l-2.17 2.5 2.6 3.1-1.25.01-1.96-2.43-.55.62v1.8h-.97v-1.8l-.54-.62-1.97 2.42h-1.24l2.58-3.1-2.15-2.5h1.29l2.03 2.5v-2.5zm5.63 4.35c.22-.24.39-.52.5-.85.13-.34.2-.68.2-1.02v-2.48h4.13v4.72h.97v2.69h-.97v-1.8h-4.75v1.8h-1V118h.3c.22-.05.43-.2.62-.42zm3.89.37v-3.83h-2.27v1.67c0 .96-.26 1.68-.76 2.16zm9.11-4.72v5.6h-.97v-.78c-.5.63-1.15.94-1.94.94-.5 0-.96-.13-1.37-.4a2.67 2.67 0 0 1-.96-1.07 3.46 3.46 0 0 1 0-3.02 2.57 2.57 0 0 1 2.36-1.4c.76 0 1.4.31 1.91.94v-.8zm-4.6 2.76c0 .39.07.75.23 1.08a1.71 1.71 0 0 0 1.6 1.03c.56 0 1.02-.19 1.36-.58.35-.4.52-.9.52-1.53 0-.4-.08-.74-.23-1.05a1.75 1.75 0 0 0-1.65-.98c-.33 0-.64.09-.92.27a2.1 2.1 0 0 0-.92 1.76z"/><path id="qb9bc" d="M972.71 86l.26 11.1v1.56l-.03 1.45h.7l1.5-.05c1.43 0 2.15.44 2.15 1.3 0 .44-.17.82-.52 1.14-.35.31-.76.47-1.22.47h-2.3c-1.59 0-2.6-.03-3.05-.1a5.4 5.4 0 0 1-.63.05c-1.25 0-1.87-.4-1.87-1.18 0-.32.1-.62.3-.91.21-.3.42-.44.62-.46h1.48l.1-.7-.35-11.09.28-11.62c0-2-.09-3.86-.26-5.61h-1l-1.2.05c-.51 0-.9-.1-1.2-.3-.29-.2-.43-.56-.43-1.1 0-.8.86-1.2 2.58-1.2h6.24c1.42 0 2.13.36 2.13 1.1 0 .32-.16.61-.47.89-.3.27-.66.4-1.05.4h-2.68c.14 1.43.2 3.05.2 4.85zm-31.4 5.59c0-1.27-.07-2.84-.21-4.72-.15-1.88-.36-4.06-.63-6.55-.27-2.5-.46-4.3-.56-5.42a425.01 425.01 0 0 0-3.07 18.5c.6.4 2.14.68 4.63.85-.1-.5-.16-1.4-.16-2.66zm2.9 1.61l.56 3.22c0 .42.16 1.46.5 3.1.33 1.66.5 2.74.5 3.25v.05c0 .76-.3 1.26-.88 1.48-.73 0-1.3-.12-1.7-.36-.42-.24-.62-.7-.62-1.38 0-1.47-.26-3.62-.77-6.45l-5.17-.76a25.86 25.86 0 0 0-.74 3.8 29.79 29.79 0 0 1-.48 3c-.31 1.3-.88 1.95-1.72 1.95-.4 0-.79-.13-1.13-.4a1.2 1.2 0 0 1-.53-1.01l.13-.46c2.35-9.06 4.1-17.88 5.24-26.47.04-.23.09-.93.15-2.09.18-2.55.5-4.17.98-4.87h1.76c.48 0 .9.11 1.25.33.36.22.54.56.54 1 0 2.65.35 6.59 1.06 11.8.71 5.22 1.06 8.98 1.06 11.27zm38.13-10.81l.31-9.75c0-1.61.64-2.9 1.92-3.84v.32a.74.74 0 0 1 .38-.12c.82 0 1.84 1.4 3.07 4.22a79.26 79.26 0 0 1 3.33 9.27c.99 3.36 1.97 6.76 2.95 10.19.98 3.42 1.6 5.43 1.83 6.03.7-7.3 1.05-16.13 1.05-26.5l-.08-1.4c0-1.04.44-1.56 1.3-1.56.5 0 .87.2 1.12.61.25.42.37.9.37 1.43v3.96c-.03 4.1-.22 9.57-.55 16.41-.33 6.84-.78 10.7-1.34 11.59-.96.28-1.62.43-1.98.43-.37 0-.65-.12-.85-.37a2.9 2.9 0 0 1-.47-1.13 5.25 5.25 0 0 0-.31-1.02l.03-.24c0-1.29-1.26-5.39-3.76-12.31a299.24 299.24 0 0 0-5.45-14.28v26.29a5 5 0 0 0 .2.36c.22.37.34.72.34 1.04 0 .33-.16.65-.48.97a1.5 1.5 0 0 1-1.11.49c-1.14 0-1.72-1.06-1.72-3.2zm-60.2-8.32l.16 12.55c-.2.48-.3 1.07-.3 1.79v1.04l-.21 8.31c0 2.4.58 3.6 1.76 3.6l2.17-.08c1.88 0 2.82.51 2.82 1.53 0 .38-.16.69-.49.93-.32.25-.69.4-1.1.45a15.5 15.5 0 0 0-4.68-.61c-.56.32-1.1.48-1.62.48s-.93-.18-1.22-.53c-.29-.36-.43-.75-.43-1.18 0-2.58.11-6.47.33-11.66.22-5.2.33-9.09.33-11.67v-.38c-.2-2.18-.3-3.81-.3-4.9 0-3.3.6-4.94 1.81-4.94.36 0 .67.12.94.38.26.25.4.56.4.92zm32.87 28.57l-.1-4 .07-1.79c-.13-.44-.41-4.37-.83-11.78-.42-7.42-.64-11.94-.68-13.6h-.2c-2.83-.05-4.25-.56-4.25-1.55 0-.32.2-.6.57-.8.37-.22.74-.32 1.1-.32l7.1.48.85-.02c1.09 0 1.64.41 1.64 1.25 0 .42-.18.76-.54 1.03-.36.26-.76.4-1.2.4l-2.4-.36-.1.53c0 3.3.28 8.24.86 14.82s.87 11.53.87 14.84c0 .4-.19.77-.56 1.09-.38.3-.79.47-1.23.47zm87.21-18.03c1.84-.05 2.76-2.26 2.76-6.6 0-4.36-.71-6.62-2.14-6.79-.41.89-.62 2.76-.62 5.61zm-.28 14.97v2.34a3.88 3.88 0 0 0 2.65-2.08 6.7 6.7 0 0 0 .88-3.1c0-.97-.01-1.73-.04-2.29a17.3 17.3 0 0 0-.75-4.2c-.51-1.5-1.3-2.36-2.38-2.58-.16 2.24-.23 4.88-.23 7.9l-.18 3.75zm-2.28-25.43l-.28-2.7v-.28c0-.73.12-1.31.35-1.74.23-.42.82-.63 1.76-.63.95 0 1.87.24 2.78.74.9.5 1.62 1.17 2.15 2.04a10.9 10.9 0 0 1 1.56 5.81c0 2.18-.17 3.9-.5 5.17a10.63 10.63 0 0 1-1.63 3.53c1.37 1.3 2.15 3.46 2.36 6.45.03.68.05 1.5.06 2.45 0 .95-.07 1.88-.24 2.8-.17.92-.45 1.8-.85 2.63a6.82 6.82 0 0 1-6.62 4.16c-.73 0-1.2-.33-1.4-.97a7.4 7.4 0 0 1-.24-1.79l.51-11.12zm34.87 1.4l.03 1.38c.07 2.7.1 4.65.1 5.88a4.9 4.9 0 0 0 2.45-3.13c.52-1.86 3-9.5 2.74-10.31.1-.92 2.79-2.73 2.5.32-.02.3-2.29 8.95-2.9 10.3-.38.82-.81 1.7-1.3 2.6l-.83 1.52c.2.85.52 2.52 1 5 1.02 5.42 2.26 8.8 3.5 11.18.36.68.54 1.21.54 1.6 0 .37-.1.7-.32.96-.21.26-.5.4-.86.4-.73 0-1.43-.84-2.1-2.51-.68-1.68-1.32-3.01-1.73-5.06-1.25-6.23-2-9.67-2.28-10.3h-.64l-.05 5.67c0 2.4.7 8.39.36 11.22-.23 1.88-1.79 1.5-2.28.02-.5-1.48-.32-3.6-.32-4.98 0-1.95-.15-6.1-.45-12.48-.3-6.38.1-11.14.1-14.29.01-1.65.6-2.47 1.75-2.47 1.44.12.96 6.27.99 7.47zm-60.26 16.04c0-1.27-.07-2.84-.21-4.72-.15-1.88-.36-4.06-.63-6.55-.27-2.5-.46-4.3-.56-5.42a425.37 425.37 0 0 0-3.07 18.5c.6.4 2.14.68 4.63.85-.1-.5-.16-1.4-.16-2.66zm2.9 1.61l.56 3.22c0 .42.16 1.46.5 3.1.33 1.66.5 2.74.5 3.25v.05c0 .76-.3 1.26-.88 1.48-.73 0-1.3-.12-1.7-.36-.42-.24-.62-.7-.62-1.38 0-1.47-.26-3.62-.77-6.45l-5.17-.76a25.83 25.83 0 0 0-.74 3.8 29.86 29.86 0 0 1-.48 3c-.31 1.3-.88 1.95-1.72 1.95-.4 0-.79-.13-1.13-.4a1.2 1.2 0 0 1-.53-1.01l.13-.46a221.7 221.7 0 0 0 5.24-26.47c.04-.23.09-.93.15-2.09.18-2.55.5-4.17.98-4.87h1.76c.48 0 .9.11 1.25.33.36.22.54.56.54 1 0 2.65.35 6.59 1.06 11.8.71 5.22 1.07 8.98 1.07 11.27zm76.11-7.2l.26 11.1v1.56l-.03 1.45h.7l1.5-.05c1.43 0 2.15.44 2.15 1.3 0 .44-.17.82-.52 1.14-.35.31-.76.47-1.22.47h-2.3c-1.59 0-2.6-.03-3.05-.1-.27.03-.48.05-.63.05-1.25 0-1.87-.4-1.87-1.18 0-.32.1-.62.3-.91.21-.3.41-.44.62-.46h1.48l.1-.7-.35-11.09.28-11.62c0-2-.09-3.86-.26-5.61h-1l-1.2.05c-.51 0-.9-.1-1.2-.3-.29-.2-.43-.56-.43-1.1 0-.8.86-1.2 2.58-1.2h6.24c1.42 0 2.13.36 2.13 1.1 0 .32-.16.61-.47.89-.3.27-.66.4-1.05.4h-2.68c.13 1.43.2 3.05.2 4.85zm9.63-3.61l.31-9.75c0-1.55.8-3.64 2.3-3.64.82 0 1.84 1.4 3.07 4.22a79.33 79.33 0 0 1 3.33 9.27c.99 3.36 1.97 6.76 2.95 10.19.98 3.42 1.59 5.43 1.83 6.03.7-7.3 1.05-16.13 1.05-26.5l-.08-1.4c0-1.04.44-1.56 1.3-1.56.5 0 .87.2 1.12.61.25.42.37.9.37 1.43v3.96c-.04 4.1-.22 9.57-.55 16.41-.33 6.84-.78 10.7-1.35 11.59-.95.28-1.61.43-1.98.43-.36 0-.65-.12-.84-.37a2.9 2.9 0 0 1-.48-1.13 5.25 5.25 0 0 0-.3-1.02l.03-.24c0-1.29-1.26-5.39-3.76-12.31a298.5 298.5 0 0 0-5.45-14.28v26.29l.2.36c.22.37.34.72.34 1.04 0 .33-.16.65-.48.97a1.5 1.5 0 0 1-1.11.49c-1.14 0-1.72-1.06-1.72-3.2zm-41.6 3.62l.26 11.1v1.55l-.02 1.45h.69l1.5-.05c1.44 0 2.15.44 2.15 1.3 0 .44-.17.82-.52 1.14-.35.31-.75.47-1.22.47h-2.3c-1.58 0-2.6-.03-3.04-.1a5.4 5.4 0 0 1-.64.05c-1.25 0-1.87-.4-1.87-1.18 0-.32.1-.62.31-.91.2-.3.4-.44.61-.46h1.49l.1-.7-.36-11.09.28-11.62c0-2-.08-3.86-.25-5.61h-1l-1.2.05c-.52 0-.91-.1-1.2-.3-.3-.2-.44-.56-.44-1.1 0-.8.86-1.2 2.58-1.2h6.24c1.42 0 2.13.36 2.13 1.1 0 .32-.16.61-.47.89-.3.27-.65.4-1.04.4h-2.69c.14 1.43.2 3.05.2 4.85zm73.11 0l.26 11.1v1.55l-.03 1.45h.7l1.5-.05c1.43 0 2.15.44 2.15 1.3 0 .44-.17.82-.52 1.14-.35.31-.76.47-1.22.47h-2.3c-1.59 0-2.6-.03-3.05-.1a5.4 5.4 0 0 1-.63.05c-1.25 0-1.87-.4-1.87-1.18 0-.32.1-.62.3-.91.21-.3.42-.44.62-.46h1.48l.1-.7-.35-11.09.28-11.62c0-2-.09-3.86-.26-5.61h-1l-1.2.05c-.51 0-.9-.1-1.2-.3-.29-.2-.43-.56-.43-1.1 0-.8.86-1.2 2.58-1.2h6.24c1.42 0 2.13.36 2.13 1.1 0 .32-.16.61-.47.89-.3.27-.66.4-1.05.4h-2.68c.14 1.43.2 3.05.2 4.85z"/></defs><g><g transform="translate(-846 -59)"><use xlink:href="#qb9ba"/></g><g transform="translate(-846 -59)"><use xlink:href="#qb9bb"/></g><g transform="translate(-846 -59)"><use xlink:href="#qb9bc"/></g></g></svg>