<svg xmlns="http://www.w3.org/2000/svg" xmlns:xlink="http://www.w3.org/1999/xlink" width="166" height="44" viewBox="0 0 166 44"><defs><path id="wm7ia" d="M478.44 2664.37a2.4 2.4 0 0 1-.8-1.71c-.75-7.06-.48-17.25 1-22.51.16-.8.76-1.44 1.55-1.64.38-.08.38.05.33.25-1.28 6.15-1.66 17.72-.27 26.07 1.63.33 3.29.5 4.95.5 4.32.05 9.7-1.54 10.12-5.18.33-2.84-2.5-4.92-6.12-5.8-2.32.43-4.7.49-7.03.17-1.33-.17-1.7-.67-.85-1.39.8-.66 2.71-.83 4.15-.79 1.11.03 2.21.16 3.3.38 4.16-.8 9-2.88 8.8-6.85-.27-5.1-7.84-8.4-15.4-8.57-7.35-.16-12.36 2-13.53 4.52-1.33 2.83 1.5 5.5 6.87 6.3.43.05.48.3.1.46-1.18.37-2.45.42-3.67.13-4.1-.67-6.71-3.6-4.58-7.65 1.5-2.84 6.4-6.05 15.34-5.67 10.02.4 16.62 5.05 16.46 10.65-.1 3.55-3.14 6.26-7.35 7.64 3.3 1.46 5.17 3.97 4.9 6.52-.48 3.8-4.53 6.85-11.61 6.9-5.17.03-8.15-1.47-9.7-2.51a3.26 3.26 0 0 1-1.43-1.84c0-.34.15-.38.53-.17 1.24.76 2.56 1.36 3.94 1.8 0 0 .49.43 0 0zm23.32-4.05c4.05-.67 4.75-6.39 3.41-6.68-1-.21-2.98 2.09-3.35 5.26-.07.47-.1.95-.06 1.42zm.06.71c.2 1.55.9 2.55 1.65 2.76 1.92.53 4.94-.89 6.19-3.7-.07.73-.01 1.37.13 1.92-1.11 2.4-3.87 3.54-6.75 2.65-1.7-.54-4.2-2.75-3.3-6.72 1.01-4.51 4-6.27 6.07-5.1 1.7.96 2.13 2.47 1.6 4.26-.74 2.46-3.41 3.8-5.59 3.93zm7.84-.93a9.7 9.7 0 0 1 .42-2.08c1.39-4.38 4.42-6.1 6.6-5.05.62.3 1.12.8 1.44 1.42.28-.42.73-.71 1.23-.8.26-.03.37.05.32.26-1.39 4.47-.9 9.52.32 9.73.69.13 2.28-1.38 2.72-3.84 0-.09 0-.18.08-.15 0 1.04.17 1.92.48 2.64-.4 1.96-1.82 2.96-3.6 2.44a3.43 3.43 0 0 1-2.46-2.72c-.63 2.26-2.07 3.68-4.74 2.88a3.8 3.8 0 0 1-2.68-2.82c.14-.3.25-.63.34-.98.1-.4.1-.81 0-1.2-.06-.22-.27-.22-.38.03l-.1.24zm13.13-.51c0-.36.03-.74.08-1.15.58-4.88 3.67-7.01 5.85-5.93a3.3 3.3 0 0 1 2.14 2.8 2.35 2.35 0 0 1-1.98 2.5c-.32 0-.37 0-.32-.16.96-2.09.53-4.3-.37-4.39-1.12-.12-3.04 2.8-3.2 6.14-.1 2.43.6 4.14 1.76 4.6 2.34.92 5.27-1.8 6.18-4.1.05-.11.12-.18.2-.2 0 .7.03 1.37.06 2a5.2 5.2 0 0 1-6.27 3.39 4.87 4.87 0 0 1-3.65-2.86c.08-.38.12-.8.12-1.24.05-.47-.1-.94-.42-1.3a.58.58 0 0 0-.18-.1zm10.33.1c-.1-5.73.5-13.27 1.63-17.12.12-.77.68-1.39 1.43-1.58.48-.13.38.04.32.24-1 4.43-1.54 13.28-1.28 19.58a27.58 27.58 0 0 1 3.31-7.4 1.36 1.36 0 0 1 1.91-.15 2.48 2.48 0 0 1 1.07 2.34c-.05 3.05 0 7.44 1.44 7.77.85.21 2.02-1.42 2.34-3.5 0-.17.1-.22.21-.13.3.25.45.62.43 1 .1 3-1.44 4.05-3.2 3.6-1.38-.38-2.71-.92-3.14-3.22-.3-2.02-.41-4.06-.32-6.1-.05-.29-.16-.46-.37-.13a27.67 27.67 0 0 0-3.24 10.35.36.36 0 0 1-.5.14 2.23 2.23 0 0 1-1.86-2.13c-.04-.48-.08-1-.1-1.55a5.26 5.26 0 0 0 .1-.37c.2-.48.22-1.01.05-1.5-.05-.12-.14-.16-.23-.13zm-17.24-5.97c-1.06-.2-3.3 2.3-3.94 5.4-.69 3.33.38 4.76 1.34 4.92 1.33.21 3.61-2.46 3.89-7.14.1-1.88-.49-3-1.29-3.18zm41.97 10.65a2.4 2.4 0 0 1-.79-1.71c-.74-7.06-.48-17.26 1.01-22.52.15-.8.76-1.44 1.55-1.63.37-.08.37.04.32.25-1.28 6.14-1.65 17.71-.27 26.07 1.63.33 3.3.5 4.96.5 4.31.04 9.69-1.54 10.12-5.18.31-2.84-2.51-4.93-6.13-5.8-2.32.43-4.7.49-7.03.16-1.33-.17-1.7-.67-.86-1.38.8-.67 2.72-.83 4.16-.79 1.11.03 2.21.15 3.3.37 4.16-.79 9-2.88 8.8-6.85-.28-5.1-7.84-8.4-15.4-8.56-7.36-.17-12.36 2-13.53 4.51-1.33 2.84 1.49 5.52 6.87 6.3.43.06.48.3.1.47-1.18.37-2.45.41-3.67.13-4.1-.67-6.7-3.6-4.58-7.65 1.5-2.84 6.4-6.06 15.34-5.68 10.01.41 16.63 5.05 16.46 10.65-.1 3.55-3.14 6.27-7.35 7.65 3.3 1.46 5.17 3.97 4.9 6.52-.48 3.8-4.53 6.85-11.61 6.89-5.17.04-8.15-1.46-9.7-2.5a3.27 3.27 0 0 1-1.43-1.85c0-.33.15-.37.53-.16 1.23.75 2.55 1.36 3.93 1.79zm25.94.6a2.97 2.97 0 0 1-3.3-.43c-1.86-1.84-1.75-6.89-.48-10.69.2-.7.77-1.24 1.5-1.38.37-.04.42-.04.37.25-.7 2.72-1.12 7.98-.1 10.1.17.65.77 1.08 1.43 1.06.75 0 1.65-1.26 2.08-4.23.32-2.38.58-4.55.74-5.22.1-.83.81-1.46 1.66-1.46.41-.08.41.09.36.3-.74 4.55-1.01 10.44.91 10.44.75 0 1.8-1.63 2.19-3.8 0-.3.16-.3.31-.08l.02.02c-.02 1.04 0 2.08.07 3.12-.57 1.68-1.91 2.2-3.38 1.78a3.51 3.51 0 0 1-2.19-2.26 4.2 4.2 0 0 1-2.19 2.47zm7.69-5.12c.03-2.27.26-4.52.68-6.75.13-.69.69-1.21 1.38-1.3.38-.08.49 0 .43.25-.47 2.98-.63 6-.47 9.02a26.86 26.86 0 0 1 3.13-7.27c.59-.79 1.12-.95 2.09-.4.85.5 1.05 1.33 1.05 2.37-.05 3.05 0 7.44 1.45 7.73.96.2 2.18-1.59 2.29-3.64 0-.09.05-.16.1-.18-.01 1.22.02 2.44.11 3.65a2.33 2.33 0 0 1-2.72 1.17 3.62 3.62 0 0 1-3.14-3.22c-.3-2.02-.4-4.06-.32-6.1-.05-.29-.16-.45-.38-.12a27.88 27.88 0 0 0-3.3 9.86c-.05.37-.16.41-.47.37-.96-.16-1.66-.46-1.76-1.34l-.08-.98c.17-.5.27-1.12.28-1.85 0-.45-.12-.89-.35-1.27zm12.14-.17c.04-2.2.27-4.4.69-6.58a1.6 1.6 0 0 1 1.39-1.3c.36-.08.46 0 .42.25-.47 2.98-.63 6-.48 9.02a26.86 26.86 0 0 1 3.33-7.55 1.34 1.34 0 0 1 1.89-.13c.78.53 1.2 1.45 1.06 2.38-.05 3.05 0 7.44 1.44 7.73.87.19 1.95-1.26 2.23-3.05.05.93.2 1.8.45 2.53-.54 1.32-1.68 1.81-2.9 1.52a3.61 3.61 0 0 1-3.13-3.22c-.3-2.01-.41-4.06-.33-6.1-.05-.29-.16-.45-.37-.12a27.55 27.55 0 0 0-3.3 9.86c-.06.37-.16.41-.48.37-.96-.16-1.65-.46-1.75-1.34l-.06-.62c.35-.63.54-1.5.48-2.63a1.6 1.6 0 0 0-.42-.96c-.05-.06-.11-.07-.16-.06zm11.97.76c-.12-2.07.22-4.5.86-6.63.16-.68.7-1.2 1.39-1.34.36-.04.42-.04.36.25-.69 2.72-1.16 7.94-.05 10.11.43.84.96 1.25 1.5 1.18.85-.13 1.64-1.39 2.02-4.35.14-1.74.4-3.47.74-5.18.16-.8.8-1.4 1.6-1.5.43-.09.43.03.43.2-.7 5.08-.7 10.22 0 15.3.43 3.29-.96 5.17-2.66 6.22-2.98 1.84-5.7.04-6.44-2.68a3.2 3.2 0 0 1 .1-2.58c.16-.26.48-.3.58.07 1.18 3.85 3.67 5.14 5.23 4.3 1.16-.62 1.38-2.37 1.05-5.34-.2-1.84-.31-3.72-.36-5.52a4.4 4.4 0 0 1-1.87 2.01 2.6 2.6 0 0 1-3.14-.41c-.38-.4-.68-.94-.9-1.57.25-.6.37-1.35.32-2.28a1.6 1.6 0 0 0-.43-.96c-.11-.13-.27-.04-.27.12-.01.2-.03.4-.06.58zm10.78-9.51c.17-.03.34-.04.51-.04.21-.02.43.04.6.17.1.1.16.24.16.4 0 .23-.16.44-.39.52a.5.5 0 0 1 .3.42c.04.2.1.39.16.58h-.27a2.2 2.2 0 0 1-.14-.5.4.4 0 0 0-.4-.4h-.26v.9h-.27zm.27.94h.27a.4.4 0 0 0 .46-.39.38.38 0 0 0-.47-.38c-.09 0-.18 0-.26.02zm.35 1.86a1.77 1.77 0 1 1 .01 0zm0-3.16z"/></defs><g><g transform="translate(-464 -2634)"><use xlink:href="#wm7ia"/></g></g></svg>