<svg xmlns="http://www.w3.org/2000/svg" xmlns:xlink="http://www.w3.org/1999/xlink" width="163" height="14" viewBox="0 0 163 14"><defs><path id="itsxa" d="M1127.64 2650.18l9.67 4.67v1.56l-9.68 4.64v-.02l-.03.02v-1.97l7.57-3.45v-.1l-7.55-3.48v-1.87h.02zm19.65 0v1.9l-2.6 1.21-.01 4.78 2.6 1.2v1.8l-.03-.02v.02l-9.67-4.68v-1.56l9.68-4.64v.01zm-7.68 5.43v.09l3.71 1.73v-3.52zm-117.98-5.52l-4.81 10.72h-1.96l-4.8-10.74h2.57l3.2 7.8h.1l3.24-7.78zm8.1 10.74l.02-10.73h2.27l-.02 10.73zm10.66-10.71h9.76v2.04h-3.74v8.69h-2.28l.01-8.7h-3.76zm20.47.03h1.96l4.78 10.74h-2.48l-.95-2.28h-4.78l-.94 2.26h-2.4zm-.7 6.6h3.24l-1.57-3.8h-.1zm24.4 4.17v-6.23h-.07l-2.91 5h-.64l-2.89-5.01h-.08v6.23l-2.2-.01.01-10.73h2.18l3.38 5.89h.03l3.38-5.88h2.1l-.02 10.73zm11.88.02l.02-10.73h2.27l-.02 10.73zm21.4-10.7l-.01 10.73h-1.96l-5.26-6.64h-.01v6.63h-2.29l.01-10.73h1.95l5.27 6.66h.02v-6.65zm41.85.06h1.95l4.78 10.74h-2.48l-.95-2.28h-4.78l-.94 2.26-2.4-.01zm-.72 6.6h3.24l-1.56-3.8h-.1zm9.09 3.2c0-.5.43-.94 1-.94.55 0 1 .45 1 .95 0 .53-.44.95-1 .95-.57 0-1-.42-1-.95zm1.85 0c0-.43-.39-.82-.87-.82a.84.84 0 0 0-.85.83c0 .46.38.82.85.82.5-.01.87-.37.87-.82zm-1.3.46v-.95h.6c.2 0 .35.12.35.28 0 .12-.08.22-.22.27l.24.4h-.2l-.21-.38h-.37v.38zm.18-.53h.43c.1 0 .17-.07.17-.14 0-.1-.08-.14-.17-.14h-.43z"/></defs><g><g transform="translate(-1009 -2649)"><use xlink:href="#itsxa"/></g></g></svg>