<svg xmlns="http://www.w3.org/2000/svg" xmlns:xlink="http://www.w3.org/1999/xlink" width="27" height="42" viewBox="0 0 27 42"><defs><path id="trt0a" d="M1279.85 1548.33v.13c0 .47-.39.85-.87.85h-4.13v2.42c.7 1.28.96 2.67.8 4.15a3.62 3.62 0 0 1-.35 1.2 12.43 12.43 0 0 0-1.23 4.45 9 9 0 0 0 .98 4.35c.33.76.61 1.4.61 2.08v1.84c0 .42-.3.78-.73.84-.05 0-4.6.75-5.75 4.27a.86.86 0 0 1-.82.59h-1.2a.86.86 0 0 1-.83-.59c-1.16-3.52-5.7-4.26-5.75-4.27a.86.86 0 0 1-.73-.84v-1.84c0-.67.28-1.33.61-2.08.49-1.11 1.1-2.5.97-4.48a12.27 12.27 0 0 0-1.26-4.42 3.62 3.62 0 0 1-.3-1.1c-.18-1.48.1-2.87.79-4.15v-2.42H1256a.86.86 0 0 1-.86-.85v-.13a4.53 4.53 0 0 1 4.57-4.49h6.91v-1.06a3.21 3.21 0 0 1-2.39-3.08c0-1.77 1.46-3.2 3.26-3.2 1.8 0 3.26 1.43 3.26 3.2 0 .46-.4.85-.87.85a.86.86 0 0 1-.86-.85c0-.83-.69-1.5-1.53-1.5-.84 0-1.53.67-1.53 1.5 0 .82.69 1.5 1.53 1.5.48 0 .86.37.86.84v1.8h6.92a4.53 4.53 0 0 1 4.57 4.49zm-19.2-2.79h-.93c-1.32 0-2.42.88-2.74 2.07h3.68zm1.74 2.07h10.73v-2.07h-10.73zm0 1.7v1.8c.56.05 1.32.18 2.13.5a6.4 6.4 0 0 1 3.23 2.96 6.4 6.4 0 0 1 3.24-2.95c.8-.33 1.56-.46 2.13-.5v-1.81zm11.54 19.8v-1.15c0-.32-.22-.83-.47-1.4a10.97 10.97 0 0 1-1.12-4.36h-3.71v.88c0 .46-.4.84-.87.84a.86.86 0 0 1-.86-.84v-.88h-3.73c-.05 1.9-.66 3.3-1.12 4.35-.25.58-.47 1.09-.47 1.41v1.16c1.49.37 4.81 1.54 6.17 4.68 1.37-3.14 4.7-4.31 6.18-4.68zm-.47-16.32c-1.12.04-4.01.54-4.86 4.49a.86.86 0 0 1-.85.67.86.86 0 0 1-.84-.67c-.45-2.07-1.48-3.44-3.06-4.1a5.39 5.39 0 0 0-1.8-.39c-.43.9-.58 1.87-.47 2.9.03.23.1.45.2.66l.05.13a14.42 14.42 0 0 1 1.24 4.02h3.83v-.88c0-.47.38-.85.86-.85s.87.38.87.85v.88h3.8a14.43 14.43 0 0 1 1.3-4.15c.1-.2.17-.43.2-.66a5.24 5.24 0 0 0-.47-2.9zm4.56-5.18a2.83 2.83 0 0 0-2.74-2.07h-.43v2.07zm-9.4 18.24c0 .47-.38.85-.86.85a.86.86 0 0 1-.86-.85c0-.47.38-.85.86-.85s.87.38.87.85z"/></defs><g><g transform="translate(-1254 -1535)"><use fill="#807e7b" xlink:href="#trt0a"/></g></g></svg>