<svg xmlns="http://www.w3.org/2000/svg" xmlns:xlink="http://www.w3.org/1999/xlink" width="33" height="33" viewBox="0 0 33 33"><defs><path id="nvtfa" d="M1275.52 1247.47a.4.4 0 0 0-.11.36l1.14 6.63a2.01 2.01 0 0 1-2.93 2.12l-5.98-3.13a.4.4 0 0 0-.38 0l-5.98 3.13a2.01 2.01 0 0 1-2.93-2.12l1.15-6.63a.4.4 0 0 0-.12-.36l-4.84-4.7a2 2 0 1 1 1.12-3.43l6.69-.96a.4.4 0 0 0 .3-.22l3-6.04a2 2 0 0 1 1.8-1.12 2 2 0 0 1 1.81 1.12l3 6.04c.05.12.17.2.3.22l6.69.97a2 2 0 0 1 1.12 3.42zm-1.12-1.15l4.84-4.7a.39.39 0 0 0 .1-.41.4.4 0 0 0-.32-.27l-6.7-.97c-.65-.1-1.22-.5-1.51-1.1l-3-6.04a.4.4 0 0 0-.36-.22.4.4 0 0 0-.36.22l-3 6.04c-.29.6-.85 1-1.51 1.1l-6.7.97a.4.4 0 0 0-.32.27.39.39 0 0 0 .1.41l4.85 4.7a2 2 0 0 1 .58 1.78l-1.15 6.63c-.04.23.1.35.16.4a.4.4 0 0 0 .43.03l5.98-3.14a2.02 2.02 0 0 1 1.88 0l5.99 3.14c.2.1.36.01.42-.03a.4.4 0 0 0 .16-.4l-1.14-6.63a2 2 0 0 1 .58-1.78zm2.65-13.08l-.85 1.17a.8.8 0 0 1-1.3-.94l.85-1.17a.81.81 0 0 1 1.13-.18.8.8 0 0 1 .17 1.12zm-17.22 1.35a.8.8 0 0 1-1.13-.18l-.86-1.17a.8.8 0 0 1 .18-1.13.8.8 0 0 1 1.13.18l.86 1.18a.8.8 0 0 1-.18 1.12zm-5.23 15.45l-1.38.44a.8.8 0 1 1-.5-1.52l1.38-.45a.8.8 0 1 1 .5 1.53zm13.66 8.7v1.46a.8.8 0 0 1-.8.8.8.8 0 0 1-.82-.8v-1.45a.8.8 0 0 1 1.62 0zm14.44-8.77a.8.8 0 0 1-1.01.51l-1.39-.44a.8.8 0 1 1 .5-1.53l1.39.45a.8.8 0 0 1 .51 1z"/></defs><g><g transform="translate(-1251 -1229)"><use fill="#807e7b" xlink:href="#nvtfa"/></g></g></svg>