<svg xmlns="http://www.w3.org/2000/svg" xmlns:xlink="http://www.w3.org/1999/xlink" width="36" height="36" viewBox="0 0 36 36"><defs><path id="2qlwa" d="M1279.51 1401c0 3.7-1.62 7.03-4.18 9.33a12.46 12.46 0 0 1-16.64 0h-.02a12.48 12.48 0 0 1 0-18.66 12.46 12.46 0 0 1 16.64 0h.02a12.48 12.48 0 0 1 4.18 9.33zm-1.1-.54a11.39 11.39 0 0 0-3.51-7.7c-.74.6-1.54 1.1-2.38 1.52.6 1.83.95 3.95 1 6.18zm-6.26-7.21c.67-.34 1.31-.75 1.91-1.22a11.4 11.4 0 0 0-3.88-2c.56.6 1.08 1.35 1.54 2.27.15.3.3.62.43.95zm-1.4-.47c-.9-1.8-2.02-2.88-3.2-3.14v4.82a11.4 11.4 0 0 0 3.6-.77c-.12-.31-.26-.62-.4-.9zm-8.47-.48c.46-.92.98-1.68 1.54-2.27a11.4 11.4 0 0 0-3.88 2c.6.47 1.24.88 1.91 1.22.14-.33.28-.65.43-.95zm.57 1.4c1.14.44 2.36.7 3.6.76v-4.82c-1.18.26-2.3 1.35-3.2 3.14-.14.3-.28.6-.4.91zm-.37 1.01c-.55 1.7-.87 3.68-.91 5.75h4.89v-4.91a12.5 12.5 0 0 1-3.98-.84zm3.98 6.83h-4.9c.05 2.07.37 4.04.92 5.75a12.5 12.5 0 0 1 3.98-.84zm-3.61 6.77c.12.31.26.62.4.9.9 1.8 2.02 2.9 3.2 3.15v-4.82c-1.24.06-2.46.32-3.6.77zm-1 .44c-.67.34-1.31.75-1.91 1.22a11.4 11.4 0 0 0 3.88 2 9.36 9.36 0 0 1-1.54-2.27c-.15-.3-.3-.62-.43-.95zm9.87.95a9.36 9.36 0 0 1-1.54 2.27 11.4 11.4 0 0 0 3.88-2c-.6-.47-1.24-.88-1.91-1.22-.14.33-.28.65-.43.95zm-.57-1.4a11.42 11.42 0 0 0-3.6-.76v4.82c1.18-.26 2.3-1.35 3.2-3.14.14-.3.28-.6.4-.91zm.37-1.01c.55-1.71.87-3.68.91-5.75h-4.89v4.91c1.38.06 2.72.34 3.98.83zm.91-6.83a20.48 20.48 0 0 0-.9-5.75c-1.27.5-2.61.78-3.99.84v4.9zm-16.84 0h4.89c.05-2.23.4-4.35 1-6.18-.84-.42-1.64-.93-2.38-1.53a11.39 11.39 0 0 0-3.51 7.7zm3.51 8.79c.74-.6 1.54-1.11 2.38-1.53-.6-1.83-.95-3.95-1-6.18h-4.89a11.39 11.39 0 0 0 3.51 7.7zm19.31-7.7h-4.89c-.05 2.22-.4 4.34-1 6.17.84.42 1.64.93 2.38 1.53a11.39 11.39 0 0 0 3.51-7.7zm.42 10.74v.07l-.01.01-.02.06-.75 2.57a.54.54 0 1 1-1.04-.3l.22-.75a16.38 16.38 0 0 1-10.23 3.55 16.4 16.4 0 0 1-11.67-4.84 16.39 16.39 0 0 1-4.83-11.66.54.54 0 0 1 1.09 0c0 4.12 1.6 7.99 4.51 10.9a15.44 15.44 0 0 0 20.56 1.1l-.98.12a.54.54 0 0 1-.12-1.09l2.66-.29h.08a.4.4 0 0 1 .05 0h.02a.43.43 0 0 1 .06.02c.04 0 .08.02.11.04h.01a.54.54 0 0 1 .1.07v.02h.02l.02.03v.01h.01l.04.05.03.06v.01l.02.05v.01l.02.05v.01l.01.06V1412.3zm4.67-11.29a.54.54 0 1 1-1.09 0c0-4.12-1.6-7.99-4.51-10.9a15.44 15.44 0 0 0-20.56-1.1l.98-.12a.54.54 0 0 1 .12 1.09l-2.66.29h-.12-.05l-.02-.01-.04-.01-.02-.01-.03-.01-.02-.01a.39.39 0 0 1-.03-.02l-.02-.01a1.1 1.1 0 0 1-.07-.06l-.02-.01-.03-.03v-.01h-.01a.54.54 0 0 1-.07-.1v-.02a.51.51 0 0 1-.02-.05v-.01a.55.55 0 0 1-.02-.05v-.01l-.01-.06v-.01-.05-.02-.05-.01l.02-.06.75-2.57a.54.54 0 0 1 1.04.3l-.22.75c2.9-2.3 6.47-3.55 10.23-3.55 4.4 0 8.55 1.72 11.67 4.83a16.39 16.39 0 0 1 4.83 11.67z"/></defs><g><g transform="translate(-1249 -1383)"><use fill="#807e7b" xlink:href="#2qlwa"/></g></g></svg>