<svg xmlns="http://www.w3.org/2000/svg" xmlns:xlink="http://www.w3.org/1999/xlink" width="23" height="19" viewBox="0 0 23 19"><defs><path id="kngea" d="M1072.16 1973.98c-9.85-5.15-9.95-10.27-9.95-10.27a5.2 5.2 0 0 1 9.89-2.64 5.18 5.18 0 0 1 9.88 2.64s.03 5.12-9.82 10.27zm-5.5-14a.85.85 0 1 0 1.7 0 .85.85 0 1 0-1.7 0zm-1.2 4.44c-.1-.38-.14-.71-.14-1 0-1.08.56-1.59.6-1.63a.89.89 0 0 0-1.1-1.4 3.9 3.9 0 0 0-1.27 3.2c.01.4.08.83.2 1.3a.89.89 0 1 0 1.72-.47z"/></defs><g><g transform="translate(-1061 -1956)"><use fill="#535352" xlink:href="#kngea"/></g></g></svg>