<?xml version="1.0" encoding="utf-8"?>
<!-- Generator: Adobe Illustrator 22.0.1, SVG Export Plug-In . SVG Version: 6.00 Build 0)  -->
<svg version="1.1" id="Слой_1" xmlns="http://www.w3.org/2000/svg" xmlns:xlink="http://www.w3.org/1999/xlink" x="0px" y="0px"
	 viewBox="0 0 23 19" style="enable-background:new 0 0 23 19;" xml:space="preserve">
<style type="text/css">
	.st0{fill:#DDDDDE;}
</style>
<g>
	<g transform="translate(-1309 -1956)">
		<g>
			<path id="tb4wa" class="st0" d="M1320.2,1973.9c-9.8-5.2-9.9-10.3-9.9-10.3c-0.2-2.9,1.9-5.4,4.7-5.6c2.2-0.2,4.2,1,5.1,3
				c1.2-2.6,4.2-3.8,6.8-2.6c2,0.9,3.3,3,3,5.2C1330.1,1963.6,1330.1,1968.7,1320.2,1973.9L1320.2,1973.9z M1314.7,1959.9
				c0,0.5,0.4,0.9,0.8,0.9c0.5,0,0.9-0.4,0.9-0.8c0,0,0,0,0,0c0-0.5-0.4-0.9-0.8-0.9C1315.1,1959,1314.8,1959.4,1314.7,1959.9
				C1314.7,1959.9,1314.7,1959.9,1314.7,1959.9z M1313.5,1964.3c-0.1-0.4-0.1-0.7-0.1-1c0-1.1,0.6-1.6,0.6-1.6
				c0.4-0.3,0.5-0.9,0.2-1.3s-0.9-0.5-1.3-0.2c-0.9,0.8-1.4,2-1.3,3.2c0,0.4,0.1,0.8,0.2,1.3c0.1,0.5,0.6,0.8,1.1,0.6
				S1313.7,1964.8,1313.5,1964.3L1313.5,1964.3z"/>
		</g>
	</g>
</g>
</svg>
