<svg xmlns="http://www.w3.org/2000/svg" xmlns:xlink="http://www.w3.org/1999/xlink" width="16" height="16" viewBox="0 0 16 16"><defs><path id="i9bja" d="M973.12 13a.39.39 0 0 0-.22.07 7.1 7.1 0 0 0-1.88 1.89c.08 1.86 1.7 4.49 4.58 7.4 2.86 2.9 5.46 4.55 7.3 4.64a7.25 7.25 0 0 0 1.86-1.92c.08-.11.09-.2.08-.24-.4-.28-2.7-1.83-3.09-2.07a.7.7 0 0 0-.32.1c-.2.1-.84.47-1.37.77l-.54.32-.51-.37c-.38-.27-1.2-.91-2.47-2.2a19.96 19.96 0 0 1-2.16-2.5l-.36-.51.3-.55.77-1.39c.09-.16.1-.28.1-.32-.27-.43-1.75-2.71-2.03-3.12h-.04s.07 0 0 0zm0-1c.33 0 .63.13.8.37.18.25 1.93 2.94 2.12 3.24.2.33.18.81-.07 1.3l-.79 1.41c.24.34.84 1.14 2.06 2.37 1.22 1.25 2 1.85 2.33 2.09l1.4-.8c.26-.14.53-.21.77-.21.19 0 .36.04.5.13.33.2 2.96 1.98 3.2 2.15.4.28.56.98.12 1.6-.01.03-1.67 2.35-2.61 2.35h-.03c-2.7-.09-5.85-2.73-8.02-4.94-2.17-2.2-4.78-5.4-4.87-8.12-.03-.97 2.29-2.67 2.31-2.7.24-.16.52-.24.78-.24zm7.45 5.98c-.19.19-.5.19-.7 0a.5.5 0 0 1 0-.71l4.23-4.25-2.33-.01a.4.4 0 0 1-.41-.37v-.26c0-.2.17-.37.37-.37l3.53.01h.19c.1 0 .19.03.25.1.07.06.09.15.09.26l-.02.18h.01v3.61c-.01.2-.18.32-.38.33h-.25c-.2 0-.36-.17-.35-.37l.01-2.42z"/></defs><g><g transform="translate(-970 -12)"><use fill="#fff" xlink:href="#i9bja"/></g></g></svg>